# xmcd
#
# Track frame offsets:
#	225
#	18487
#	35099
#	49049
#
# Disc length: 838 seconds
#
# Revision: 0
# Processed by: cddbd v1.5.2PL0 Copyright (c) Steve Scherf et al.
# Submitted via: audiograbber 1.83.01
#
DISCID=2e034304
DTITLE=Kimberly Hassell - Kimberly Hassell
DYEAR=2001
DGENRE=Country
TTITLE0=Make Him Mine
TTITLE1=Ain't Gonna Look Back
TTITLE2=I Want It All
TTITLE3=I Believe
EXTD=
EXTT0=
EXTT1=
EXTT2=
EXTT3=
PLAYORDER=
